<mxfile host="app.diagrams.net" modified="2024-01-17T02:57:15.430Z" agent="Mozilla/5.0 (Windows NT 10.0; Win64; x64) AppleWebKit/537.36 (KHTML, like Gecko) Chrome/108.0.0.0 Safari/537.36 Edg/108.0.1462.54" version="22.1.20" etag="JCrkBBJ76jVdctzCTFG5" type="github">
  <diagram name="第 1 页" id="Q6GN8OlzOw7eU6jYcNeJ">
    <mxGraphModel>
      <root>
        <mxCell id="0" />
        <mxCell id="1" parent="0" />
      </root>
    </mxGraphModel>
  </diagram>
</mxfile>
